<svg aria-hidden="true" style="position: absolute; width: 0; height: 0; overflow: hidden;" version="1.1" xmlns="http://www.w3.org/2000/svg" xmlns:xlink="http://www.w3.org/1999/xlink">
<defs>
<symbol id="icon-play" viewBox="0 0 25 32">
<path fill="#fff" style="fill: var(--color1, #fff)" d="M23.627 18.471l-19.804 13.12c-1.671 1.12-3.822-0.231-3.822-2.471v-26.258c0-2.24 2.151-3.591 3.822-2.471l19.804 13.12c0.373 0.249 0.693 0.622 0.924 1.049 0.213 0.427 0.338 0.924 0.338 1.44 0 0.498-0.124 0.996-0.338 1.422-0.231 0.444-0.551 0.8-0.924 1.049z"></path>
</symbol>
<symbol id="icon-close" viewBox="0 0 32 32">
<path stroke-linejoin="round" stroke-linecap="round" stroke-miterlimit="4" stroke-width="2" d="M7 7l18 18M7 25l18-18"></path>
</symbol>
<symbol id="icon-burger" viewBox="0 0 32 32">
<path d="M28 10h-24c-0.552 0-1-0.448-1-1s0.448-1 1-1v0h24c0.552 0 1 0.448 1 1s-0.448 1-1 1v0zM28 17h-24c-0.552 0-1-0.448-1-1s0.448-1 1-1v0h24c0.552 0 1 0.448 1 1s-0.448 1-1 1v0zM28 24h-24c-0.552 0-1-0.448-1-1s0.448-1 1-1v0h24c0.552 0 1 0.448 1 1s-0.448 1-1 1v0z"></path>
</symbol>
<symbol id="icon-castle" viewBox="0 0 32 32">
<path fill="#fff" style="fill: var(--color1, #fff)" d="M9.449 21.767h0.907c0.207 0 0.375-0.168 0.375-0.375s-0.168-0.375-0.375-0.375h-0.907c-0.207 0-0.375 0.168-0.375 0.375s0.168 0.375 0.375 0.375v0zM13.743 22.716h1.16c0.207 0 0.375-0.168 0.375-0.375s-0.168-0.375-0.375-0.375h-1.16c-0.202 0.007-0.363 0.172-0.363 0.375s0.161 0.368 0.362 0.375l0.001 0zM20.316 24.678h0.97c0.202-0.007 0.363-0.172 0.363-0.375s-0.161-0.368-0.362-0.375l-0.001-0h-0.97c-0.207 0-0.375 0.168-0.375 0.375s0.168 0.375 0.375 0.375v0zM10.339 24.492c0 0.207 0.168 0.375 0.375 0.375h0.907c0.202-0.007 0.363-0.172 0.363-0.375s-0.161-0.368-0.362-0.375l-0.001-0h-0.907c-0.207 0-0.375 0.168-0.375 0.375v0zM25.635 25.315c0 0.207 0.168 0.375 0.375 0.375h1.097c0.202-0.007 0.363-0.172 0.363-0.375s-0.161-0.368-0.362-0.375l-0.001-0h-1.097c-0.207 0-0.375 0.168-0.375 0.375 0 0 0 0 0 0v-0zM5.674 24.94h-1.097c-0.202 0.007-0.363 0.172-0.363 0.375s0.161 0.368 0.362 0.375l0.001 0h1.097c0.202-0.007 0.363-0.172 0.363-0.375s-0.161-0.368-0.362-0.375l-0.001-0zM17.73 21.883h0.907c0.202-0.007 0.363-0.172 0.363-0.375s-0.161-0.368-0.362-0.375l-0.001-0h-0.907c-0.207 0-0.375 0.168-0.375 0.375s0.168 0.375 0.375 0.375v0zM14.669 16.677h2.662c0 0 0 0 0 0 0.207 0 0.375-0.168 0.375-0.375 0 0 0 0 0 0v0-1.79c0-0.942-0.764-1.706-1.706-1.706s-1.706 0.764-1.706 1.706v0 1.79c0 0.207 0.168 0.375 0.375 0.375 0 0 0 0 0 0h-0zM15.044 14.512c0-0.528 0.428-0.956 0.956-0.956s0.956 0.428 0.956 0.956v0 1.415h-1.913v-1.415zM13.071 11.957c-0.207 0-0.375 0.168-0.375 0.375v0 0.288c0.007 0.202 0.172 0.363 0.375 0.363s0.368-0.161 0.375-0.362l0-0.001v-0.288c0-0 0-0 0-0 0-0.207-0.168-0.375-0.375-0.375 0 0 0 0 0 0v0zM13.071 13.381c-0.207 0-0.375 0.168-0.375 0.375v2.344c0.007 0.202 0.172 0.363 0.375 0.363s0.368-0.161 0.375-0.362l0-0.001v-2.344c0-0 0-0 0-0 0-0.207-0.168-0.375-0.375-0.375 0 0 0 0 0 0v0zM26.216 19.494c0-0.207-0.168-0.375-0.375-0.375v0h-1.033c-0.202 0.007-0.363 0.172-0.363 0.375s0.161 0.368 0.362 0.375l0.001 0h1.033c0 0 0 0 0 0 0.207 0 0.375-0.168 0.375-0.375 0-0 0-0 0-0v0zM7.852 17.079c0-0.207-0.168-0.375-0.375-0.375v0h-1.034c-0.202 0.007-0.363 0.172-0.363 0.375s0.161 0.368 0.362 0.375l0.001 0h1.034c0.207 0 0.375-0.168 0.375-0.375v-0z"></path>
<path fill="#fff" style="fill: var(--color1, #fff)" d="M29.021 28.933v-13.173c0.544-0.015 0.98-0.46 0.981-1.006v-3.416c0-0.207-0.168-0.375-0.375-0.375h-1.416c-0.207 0-0.375 0.168-0.375 0.375v0 0.764h-0.764v-0.764c0-0.207-0.168-0.375-0.375-0.375h-1.416c-0.207 0-0.375 0.168-0.375 0.375v0 0.764h-0.764v-0.764c0-0.207-0.168-0.375-0.375-0.375v0h-1.416c-0.207 0-0.375 0.168-0.375 0.375v0 3.416c0.001 0.546 0.436 0.991 0.979 1.006l0.001 0v2.162h-1.553c-0.207 0-0.375 0.168-0.375 0.375v0.764h-0.328v-8.013h0.636c0.207-0.001 0.374-0.168 0.374-0.375 0-0.098-0.038-0.188-0.1-0.255l0 0-5.236-5.654v-0.905l2.59-1.127c0.134-0.059 0.226-0.191 0.226-0.344 0-0.149-0.087-0.278-0.214-0.339l-0.002-0.001-2.646-1.242c-0.065-0.117-0.188-0.195-0.329-0.195-0.207 0-0.374 0.167-0.375 0.374v3.779l-5.238 5.654c-0.061 0.067-0.099 0.156-0.099 0.254 0 0.207 0.167 0.375 0.374 0.376h0.636v8.012h-0.328v-0.764c-0-0.207-0.168-0.375-0.375-0.375h-1.553v-2.162c0.544-0.015 0.98-0.46 0.98-1.006v-3.416c0-0.207-0.168-0.375-0.375-0.375h-1.416c-0.207 0-0.375 0.168-0.375 0.375v0 0.764h-0.764v-0.764c0-0.207-0.168-0.375-0.375-0.375h-1.416c-0.207 0-0.375 0.168-0.375 0.375v0 0.764h-0.764v-0.764c0-0.207-0.168-0.375-0.375-0.375h-1.416c-0.207 0-0.375 0.168-0.375 0.375v0 3.416c0.001 0.547 0.437 0.991 0.98 1.006l0.001 0v13.173c-0.969 0.042-1.739 0.837-1.74 1.812v0.269c0 0.207 0.168 0.375 0.375 0.375v0h28.773c0.207-0 0.375-0.168 0.375-0.375v-0.269c-0.001-0.975-0.771-1.77-1.736-1.812l-0.004-0zM16.375 1.657l1.53 0.719-1.531 0.666v-1.385zM22.726 14.754v-3.041h0.666v0.764c0 0.207 0.168 0.375 0.375 0.375v0h1.514c0.207 0 0.375-0.168 0.375-0.375v-0.764h0.666v0.764c0 0.207 0.168 0.375 0.375 0.375h1.514c0.207 0 0.375-0.168 0.375-0.375v-0.764h0.666v3.041c-0 0.142-0.115 0.257-0.258 0.258h-6.011c-0.142-0-0.257-0.116-0.257-0.258v-0zM16 5.464l4.478 4.834h-6.040c-0.207 0-0.375 0.168-0.375 0.375s0.168 0.375 0.375 0.375h5.513v8.012h-0.258v-0.764c-0-0.207-0.168-0.375-0.375-0.375h-2.336c-0.207 0-0.375 0.168-0.375 0.375v0.764h-1.211v-0.764c-0-0.207-0.168-0.375-0.375-0.375h-2.336c-0.207 0-0.375 0.168-0.375 0.375v0.764h-0.259v-8.013h1.013c0.207 0 0.375-0.168 0.375-0.375s-0.168-0.375-0.375-0.375h-1.54l4.478-4.834zM10.221 18.672v0.764c0 0 0 0 0 0 0 0.207 0.168 0.375 0.375 0.375 0 0 0 0 0 0h2.087c0.207-0 0.375-0.168 0.375-0.375v0-0.764h1.586v0.764c0 0 0 0 0 0 0 0.207 0.168 0.375 0.375 0.375 0 0 0 0 0 0h1.962c0.207-0 0.375-0.168 0.375-0.375v0-0.764h1.586v0.764c0 0 0 0 0 0 0 0.207 0.168 0.375 0.375 0.375 0 0 0 0 0 0h2.087c0.207 0 0.375-0.168 0.375-0.375v0-0.764h1.462v1.966h-0.711c-0.207 0-0.375 0.168-0.375 0.375s0.168 0.375 0.375 0.375h0.711v3.084c0.007 0.202 0.172 0.363 0.375 0.363s0.368-0.161 0.375-0.362l0-0.001v-1.629h0.964c0.202-0.007 0.363-0.172 0.363-0.375s-0.161-0.368-0.362-0.375l-0.001-0h-0.964v-3.796c-0-0.175-0.12-0.322-0.282-0.363l-0.003-0.001v-2.172h4.564v0.637h-0.992c-0.207 0-0.375 0.168-0.375 0.375s0.168 0.375 0.375 0.375h0.992v10.766h-0.932c-0.202 0.007-0.363 0.172-0.363 0.375s0.161 0.368 0.362 0.375l0.001 0h0.932v0.268h-4.28v-3.15c0-0.207-0.168-0.375-0.375-0.375s-0.375 0.168-0.375 0.375v1.373h-0.774c-0.207 0-0.375 0.168-0.375 0.375s0.168 0.375 0.375 0.375h0.774v1.027h-4.747v-1.797h1.594c0.202-0.007 0.363-0.172 0.363-0.375s-0.161-0.368-0.362-0.375l-0.001-0h-1.597c-0.028-0.75-0.435-1.399-1.034-1.763l-0.009-0.005-1.256-0.75c-0.055-0.033-0.121-0.053-0.192-0.053s-0.137 0.020-0.194 0.054l0.002-0.001-1.256 0.75c-0.63 0.383-1.044 1.064-1.046 1.843v1.202h-1.021c-0.207 0-0.375 0.168-0.375 0.375s0.168 0.375 0.375 0.375h1.021v0.52h-4.747v-2.292h0.711c0.207 0 0.375-0.168 0.375-0.375s-0.168-0.375-0.375-0.375h-0.711v-7.217h1.462zM17.744 26.459v2.472h-3.489v-2.472c0.001-0.507 0.271-0.95 0.674-1.196l0.006-0.003 1.064-0.636 1.064 0.635c0.409 0.249 0.679 0.693 0.68 1.199v0zM2.748 14.754v-3.041h0.665v0.764c0 0.207 0.168 0.375 0.375 0.375 0 0 0 0 0 0h1.514c0.207-0 0.375-0.168 0.375-0.375v-0.764h0.666v0.764c0 0.207 0.168 0.375 0.375 0.375 0 0 0 0 0 0h1.514c0.207-0 0.375-0.168 0.375-0.375v-0.764h0.666v3.041c-0 0.142-0.115 0.257-0.257 0.258h-6.010c-0.142-0-0.257-0.115-0.258-0.258v-0zM7.297 22.906h0.711v3.271c-0.007 0.026-0.011 0.056-0.011 0.087s0.004 0.061 0.011 0.090l-0.001-0.003v1.31h-0.964c-0.2 0.009-0.358 0.174-0.358 0.375s0.158 0.365 0.357 0.375l0.001 0h0.964v0.521h-4.28v-8.872h0.99c0.207 0 0.375-0.168 0.375-0.375s-0.168-0.375-0.375-0.375h-0.989v-3.548h4.564v2.172c-0.164 0.042-0.284 0.189-0.284 0.364 0 0 0 0 0 0v-0 3.858h-0.711c-0.202 0.007-0.363 0.172-0.363 0.375s0.161 0.368 0.362 0.375l0.001 0zM1.994 30.639c0.056-0.54 0.509-0.958 1.060-0.958h25.894c0.55 0 1.003 0.418 1.059 0.953l0 0.005h-28.013z"></path>
</symbol>
<symbol id="icon-smile" viewBox="0 0 32 32">
<path fill="#fff" style="fill: var(--color1, #fff)" d="M22.725 19.656c-0.123-0.11-0.285-0.178-0.464-0.178-0.206 0-0.39 0.089-0.518 0.231l-0.001 0.001c-1.45 1.622-3.544 2.551-5.742 2.551s-4.292-0.929-5.743-2.551c-0.128-0.149-0.317-0.243-0.528-0.243-0.384 0-0.696 0.311-0.696 0.696 0 0.184 0.072 0.351 0.188 0.476l-0-0c1.714 1.916 4.185 3.014 6.779 3.014s5.065-1.099 6.779-3.014c0.11-0.123 0.177-0.285 0.177-0.464 0-0.206-0.089-0.39-0.231-0.518l-0.001-0.001z"></path>
<path fill="#fff" style="fill: var(--color1, #fff)" d="M16 0c-8.822 0-16 7.178-16 16s7.178 16 16 16 16-7.178 16-16-7.178-16-16-16zM16 30.609c-8.056 0-14.609-6.553-14.609-14.609s6.553-14.609 14.609-14.609c8.056 0 14.609 6.553 14.609 14.609s-6.553 14.609-14.609 14.609z"></path>
<path fill="#fff" style="fill: var(--color1, #fff)" d="M21.565 11.13c-1.918 0-3.478 1.56-3.478 3.478 0.009 0.377 0.317 0.679 0.696 0.679s0.686-0.302 0.696-0.678l0-0.001c0.001-1.152 0.935-2.086 2.087-2.087h0c1.152 0.002 2.085 0.935 2.087 2.087v0c0.009 0.377 0.317 0.679 0.696 0.679s0.686-0.302 0.696-0.678l0-0.001c0-1.918-1.56-3.478-3.478-3.478zM12.522 14.609c0.009 0.377 0.317 0.679 0.696 0.679s0.686-0.302 0.696-0.678l0-0.001c0-1.918-1.56-3.478-3.478-3.478s-3.478 1.56-3.478 3.478c0.009 0.377 0.317 0.679 0.696 0.679s0.686-0.302 0.696-0.678l0-0.001c0.001-1.152 0.935-2.086 2.087-2.087h0c1.152 0.002 2.085 0.935 2.087 2.087v0z"></path>
</symbol>
<symbol id="icon-ghost" viewBox="0 0 32 32">
<path fill="#fff" style="fill: var(--color1, #fff)" d="M31.168 10.043c-0.274-0.64-0.899-1.080-1.626-1.080-0.3 0-0.582 0.075-0.83 0.207l0.009-0.005c-0.912 0.481-1.686 0.968-2.421 1.505l0.055-0.038v-0.277c0-0.019 0-0.042 0-0.064 0-5.719-4.636-10.354-10.354-10.354s-10.354 4.636-10.354 10.354c0 0.023 0 0.045 0 0.068l-0-0.003v0.277c-0.68-0.499-1.454-0.985-2.262-1.416l-0.104-0.051c-0.239-0.13-0.524-0.206-0.827-0.206-0.974 0-1.764 0.79-1.764 1.764 0 0.563 0.264 1.064 0.674 1.387l0.004 0.003c1.484 1.217 2.771 2.592 3.862 4.116l0.044 0.064c-0.214 1.714-0.52 3.415-0.916 5.096l-1.39 5.656c-0.008 0.031-0.013 0.067-0.013 0.104 0 0.215 0.155 0.394 0.36 0.431l0.003 0 1.635 0.285c0.601 0.107 1.103 0.464 1.404 0.956l0.005 0.009 0.199 0.33c0.524 0.856 1.454 1.419 2.516 1.419 0.111 0 0.221-0.006 0.329-0.018l-0.013 0.001 0.386-0.042c0.067-0.008 0.144-0.012 0.222-0.012 0.539 0 1.029 0.206 1.396 0.544l-0.001-0.001 0.257 0.236c0.52 0.48 1.219 0.775 1.985 0.775 0.43 0 0.838-0.093 1.206-0.259l-0.018 0.007 0.343-0.152c0.245-0.111 0.532-0.175 0.833-0.175s0.588 0.065 0.846 0.181l-0.013-0.005 0.343 0.152c0.35 0.159 0.758 0.252 1.188 0.252 0.767 0 1.465-0.295 1.987-0.777l-0.002 0.002 0.257-0.236c0.366-0.337 0.857-0.544 1.395-0.544 0.078 0 0.155 0.004 0.231 0.013l-0.009-0.001 0.385 0.042c0.095 0.011 0.205 0.017 0.317 0.017 1.061 0 1.991-0.563 2.507-1.407l0.007-0.013 0.2-0.33c0.306-0.502 0.808-0.858 1.396-0.963l0.012-0.002 1.636-0.286c0.207-0.037 0.363-0.216 0.363-0.431 0-0.037-0.005-0.073-0.013-0.107l0.001 0.003-1.389-5.653c-0.344-1.368-0.666-3.099-0.892-4.86l-0.025-0.24c1.135-1.589 2.422-2.963 3.868-4.151l0.037-0.030c0.411-0.325 0.673-0.823 0.673-1.383 0-0.248-0.051-0.484-0.144-0.698l0.004 0.011zM30.096 11.422c-1.6 1.311-2.983 2.801-4.144 4.457l-0.047 0.071c-0.056 0.086-0.079 0.189-0.067 0.291 0.256 2.091 0.591 3.911 1.024 5.692l-0.069-0.334 1.278 5.2-1.175 0.205c-0.857 0.153-1.572 0.66-2.001 1.362l-0.007 0.013-0.2 0.33c-0.368 0.601-1.021 0.996-1.766 0.996-0.078 0-0.154-0.004-0.23-0.013l0.009 0.001-0.386-0.042c-0.096-0.011-0.206-0.017-0.319-0.017-0.767 0-1.465 0.294-1.987 0.776l0.002-0.002-0.257 0.237c-0.365 0.337-0.855 0.544-1.393 0.544-0.302 0-0.588-0.065-0.847-0.182l0.013 0.005-0.343-0.152c-0.349-0.159-0.758-0.251-1.188-0.251s-0.838 0.092-1.206 0.259l0.018-0.007-0.343 0.152c-0.245 0.111-0.532 0.176-0.833 0.176-0.538 0-1.028-0.207-1.394-0.545l0.001 0.001-0.258-0.237c-0.521-0.48-1.219-0.774-1.985-0.774-0.112 0-0.223 0.006-0.332 0.019l0.013-0.001-0.386 0.042c-0.066 0.007-0.142 0.012-0.22 0.012-0.745 0-1.398-0.394-1.761-0.986l-0.005-0.009-0.199-0.33c-0.436-0.715-1.151-1.222-1.99-1.372l-0.018-0.003-1.175-0.205 1.279-5.205c0.364-1.446 0.698-3.264 0.93-5.115l0.024-0.24c0.002-0.016 0.003-0.034 0.003-0.052 0-0.088-0.026-0.171-0.071-0.24l0.001 0.002c-1.207-1.727-2.589-3.216-4.149-4.496l-0.039-0.031c-0.204-0.164-0.333-0.414-0.333-0.694 0-0.491 0.398-0.889 0.889-0.889 0.15 0 0.292 0.037 0.416 0.103l-0.005-0.002c1.109 0.582 2.065 1.216 2.948 1.935l-0.032-0.025c0.075 0.063 0.173 0.1 0.279 0.1 0.237 0 0.431-0.189 0.437-0.425v-0.001c0.010-0.39 0.017-0.78 0.017-1.17 0-5.235 4.244-9.479 9.479-9.479s9.479 4.244 9.479 9.479v0c0 0.39 0.008 0.78 0.017 1.17 0.006 0.237 0.2 0.426 0.437 0.426 0.106 0 0.203-0.038 0.279-0.101l-0.001 0.001c0.852-0.694 1.807-1.328 2.822-1.865l0.095-0.046c0.12-0.064 0.262-0.102 0.413-0.102 0.366 0 0.681 0.222 0.816 0.539l0.002 0.006c0.045 0.102 0.071 0.221 0.071 0.347 0 0.28-0.13 0.529-0.334 0.691l-0.002 0.001z"></path>
<path fill="#fff" style="fill: var(--color1, #fff)" d="M12.766 5.531c-1.008 0-1.828 1.002-1.828 2.234s0.82 2.234 1.828 2.234c1.008 0 1.828-1.002 1.828-2.234s-0.819-2.234-1.828-2.234zM12.766 9.125c-0.517 0-0.953-0.623-0.953-1.36s0.438-1.359 0.953-1.359c0.515 0 0.953 0.622 0.953 1.359s-0.436 1.359-0.953 1.359zM19.234 5.531c-1.008 0-1.828 1.002-1.828 2.234s0.82 2.234 1.828 2.234c1.008 0 1.828-1.002 1.828-2.234s-0.82-2.234-1.828-2.234zM19.234 9.125c-0.517 0-0.953-0.623-0.953-1.36s0.436-1.359 0.953-1.359c0.516 0 0.953 0.622 0.953 1.359s-0.438 1.359-0.953 1.359zM16 9.719c-1.060 0-1.891 1.27-1.891 2.891s0.831 2.89 1.891 2.89 1.89-1.27 1.89-2.89-0.83-2.891-1.89-2.891zM16 14.625c-0.48 0-1.016-0.862-1.016-2.015s0.536-2.016 1.016-2.016 1.016 0.862 1.016 2.016c0 1.154-0.536 2.015-1.016 2.015z"></path>
</symbol>
<symbol id="icon-rocket" viewBox="0 0 32 32">
<path fill="#fff" style="fill: var(--color1, #fff)" d="M15.488 20.726l-4.212-4.438c-0.052-0.054-0.083-0.128-0.083-0.209 0-0.087 0.036-0.165 0.095-0.22l0-0 6.914-6.562c1.372-1.046 3.172-1.315 5.502-0.825 0.123 0.027 0.217 0.125 0.237 0.248l0 0.002c0.37 2.354 0.006 4.136-1.112 5.452-0.007 0.009-0.014 0.016-0.022 0.024l-0 0-6.89 6.539c-0.054 0.052-0.128 0.083-0.209 0.083-0.086 0-0.164-0.036-0.219-0.093l-0-0zM11.925 16.090l3.794 3.998 6.659-6.319c0.97-1.148 1.289-2.66 0.996-4.743-2.064-0.4-3.591-0.161-4.79 0.746l-6.659 6.318z"></path>
<path fill="#fff" style="fill: var(--color1, #fff)" d="M9.745 15.585c-0.052-0.054-0.083-0.128-0.083-0.209 0-0.007 0-0.014 0.001-0.020l-0 0.001 0.041-0.604c0.080-1.281 0.901-2.352 2.036-2.796l0.022-0.008 0.037-0.014c0.525-0.2 1.133-0.315 1.767-0.315 0.736 0 1.435 0.156 2.067 0.436l-0.033-0.013c0.1 0.051 0.168 0.153 0.168 0.271 0 0.087-0.036 0.165-0.095 0.22l-0 0-3.097 2.939c-0.054 0.052-0.128 0.083-0.209 0.083-0.027 0-0.053-0.004-0.078-0.010l0.002 0c-0.273-0.065-0.586-0.103-0.908-0.103-0.468 0-0.918 0.079-1.336 0.225l0.028-0.009c-0.032 0.013-0.069 0.020-0.108 0.020-0.068 0-0.131-0.022-0.181-0.060l0.001 0.001c-0.015-0.011-0.028-0.023-0.041-0.035l-0-0zM11.866 12.234l0.106 0.284c-0.937 0.367-1.601 1.236-1.663 2.268l-0 0.007-0.011 0.17c0.326-0.083 0.701-0.13 1.087-0.13 0.316 0 0.624 0.032 0.922 0.092l-0.030-0.005 2.626-2.492c-0.398-0.124-0.857-0.195-1.331-0.195-0.562 0-1.1 0.1-1.598 0.283l0.032-0.010-0.138-0.272zM16.111 22.294c-0.052-0.054-0.084-0.128-0.084-0.21 0-0.044 0.009-0.087 0.027-0.125l-0.001 0.002c0.184-0.446 0.29-0.964 0.29-1.507 0-0.247-0.022-0.489-0.064-0.725l0.004 0.025c-0.004-0.018-0.006-0.039-0.006-0.061 0-0.086 0.036-0.165 0.094-0.22l0-0 3.098-2.94c0.054-0.052 0.128-0.083 0.209-0.083 0.124 0 0.23 0.074 0.277 0.18l0.001 0.002c0.204 0.531 0.323 1.145 0.323 1.787 0 0.728-0.152 1.421-0.427 2.048l0.013-0.033-0.016 0.037c-0.508 1.126-1.616 1.897-2.906 1.908h-0.001l-0.605 0.009c-0.001 0-0.003 0-0.004 0-0.087 0-0.165-0.036-0.22-0.095l-0-0zM16.908 19.801c0.095 0.661 0.045 1.335-0.147 1.974l0.17-0.003c1.046-0.007 1.945-0.63 2.352-1.525l0.007-0.016 0.292 0.087-0.279-0.118c0.228-0.529 0.36-1.145 0.36-1.792 0-0.39-0.048-0.768-0.138-1.129l0.007 0.032-2.623 2.49zM19.429 12.77c-0.272-0.286-0.439-0.674-0.439-1.1 0-0.883 0.716-1.598 1.598-1.598s1.598 0.716 1.598 1.598c0 0.456-0.191 0.868-0.497 1.159l-0.001 0.001c-0.286 0.271-0.674 0.438-1.1 0.438-0.456 0-0.867-0.191-1.159-0.497l-0.001-0.001zM21.307 10.988c-0.182-0.198-0.442-0.322-0.731-0.322-0.548 0-0.991 0.444-0.991 0.991 0 0.271 0.108 0.516 0.284 0.695l-0-0c0.18 0.183 0.43 0.297 0.708 0.297 0.548 0 0.991-0.444 0.991-0.991 0-0.258-0.099-0.494-0.261-0.67l0.001 0.001zM14.362 21.362l-3.78-3.983c-0.052-0.054-0.084-0.128-0.084-0.209 0-0.087 0.036-0.165 0.095-0.22l0-0 0.91-0.863c0.054-0.052 0.128-0.083 0.209-0.083 0.087 0 0.165 0.036 0.22 0.094l0 0 3.78 3.983c0.052 0.054 0.083 0.128 0.083 0.209 0 0.087-0.036 0.165-0.095 0.22l-0 0-0.91 0.864c-0.054 0.052-0.128 0.083-0.209 0.083-0.087 0-0.165-0.036-0.22-0.094l-0-0zM11.231 17.181l3.362 3.542 0.47-0.446-3.362-3.542-0.47 0.446z"></path>
<path fill="#fff" style="fill: var(--color1, #fff)" d="M8.469 23.199c-0.153-0.176-0.246-0.408-0.246-0.661 0-0.168 0.041-0.326 0.113-0.466l-0.003 0.006c0.232-0.549 0.408-1.186 0.497-1.851l0.004-0.039c0.179-1.108 0.32-1.984 2.267-2.848 0.036-0.017 0.079-0.026 0.123-0.026 0.087 0 0.165 0.036 0.22 0.094l0 0 2.929 3.087c0.052 0.054 0.084 0.128 0.084 0.209 0 0.050-0.012 0.098-0.034 0.139l0.001-0.002c-0.253 0.534-0.575 0.991-0.96 1.386l0.001-0.001c-0.621 0.589-1.257 0.664-1.994 0.751-0.647 0.056-1.284 0.195-1.895 0.413-0.122 0.056-0.264 0.089-0.414 0.089-0.269 0-0.514-0.106-0.695-0.279l0 0-0.001-0.001zM11.155 17.983c-1.461 0.691-1.555 1.276-1.721 2.302-0.102 0.756-0.292 1.441-0.562 2.084l0.020-0.054c-0.083 0.194-0.076 0.369 0.017 0.467s0.264 0.111 0.46 0.039c0.594-0.22 1.284-0.378 2.001-0.444l0.033-0.002c0.705-0.084 1.172-0.138 1.647-0.588 0.29-0.295 0.536-0.635 0.726-1.008l0.011-0.023-2.632-2.773z"></path>
<path fill="#fff" style="fill: var(--color1, #fff)" d="M10.543 21.216c-0.103-0.117-0.166-0.271-0.166-0.44 0-0.107 0.025-0.208 0.070-0.297l-0.002 0.004c0.122-0.298 0.205-0.611 0.247-0.93 0.091-0.559 0.17-1.040 1.082-1.491 0.039-0.019 0.085-0.031 0.133-0.031 0.087 0 0.165 0.036 0.22 0.095l0 0 1.567 1.651c0.052 0.054 0.083 0.128 0.083 0.209 0 0.054-0.014 0.105-0.039 0.149l0.001-0.002c-0.121 0.226-0.265 0.42-0.435 0.589v0c-0.293 0.259-0.679 0.419-1.102 0.424h-0.001c-0.318 0.028-0.632 0.097-0.932 0.203-0.077 0.034-0.167 0.054-0.262 0.054-0.18 0-0.343-0.071-0.463-0.188l-0.001-0.001zM11.846 18.711c-0.445 0.263-0.483 0.494-0.556 0.939-0.054 0.398-0.155 0.759-0.297 1.097l0.011-0.028c-0.011 0.021-0.017 0.046-0.017 0.072 0 0.004 0 0.008 0 0.012l-0-0c0-0.007 0.028-0.005 0.072-0.022 0.314-0.116 0.678-0.2 1.056-0.235l0.017-0.001c0.009 0 0.019 0 0.029 0 0.277 0 0.531-0.099 0.729-0.263l-0.002 0.002c0.079-0.077 0.149-0.164 0.208-0.257l-1.249-1.315zM14.608 17.345c-0.052-0.054-0.083-0.128-0.083-0.209 0-0.087 0.036-0.165 0.095-0.22l0-0 1.29-1.224c0.054-0.052 0.128-0.083 0.209-0.083 0.168 0 0.303 0.136 0.303 0.303 0 0.087-0.036 0.165-0.094 0.22l-0 0-1.29 1.225c-0.054 0.052-0.128 0.084-0.209 0.084-0.087 0-0.165-0.036-0.22-0.095l-0-0zM13.631 16.306c-0.052-0.054-0.083-0.128-0.083-0.209 0-0.087 0.036-0.165 0.094-0.22l0-0 0.567-0.538c0.054-0.052 0.128-0.083 0.209-0.083 0.168 0 0.303 0.136 0.303 0.303 0 0.087-0.036 0.165-0.094 0.22l-0 0-0.568 0.539c-0.054 0.052-0.128 0.083-0.209 0.083-0.087 0-0.165-0.036-0.22-0.094l-0-0zM15.592 18.372c-0.052-0.054-0.083-0.128-0.083-0.209 0-0.087 0.036-0.165 0.095-0.22l0-0 0.568-0.538c0.055-0.054 0.13-0.087 0.213-0.087 0.168 0 0.303 0.136 0.303 0.303 0 0.088-0.038 0.168-0.098 0.224l-0 0-0.567 0.538c-0.054 0.052-0.128 0.084-0.209 0.084-0.087 0-0.165-0.036-0.22-0.095l-0-0z"></path>
</symbol>
<symbol id="icon-killer" viewBox="0 0 32 32">
<path fill="#fff" style="fill: var(--color1, #fff)" d="M4.007 20.005l0.5 3c0.021 0.127 0.090 0.241 0.193 0.318l3.875 2.906 0.45 1.352c0.068 0.2 0.255 0.342 0.474 0.342 0.029 0 0.058-0.003 0.085-0.007l-0.003 0 0.24-0.040-0.296 0.888c-0.016 0.047-0.026 0.102-0.026 0.158v1.5c0 0.276 0.224 0.5 0.5 0.5v0h12c0 0 0 0 0 0 0.276 0 0.5-0.224 0.5-0.5 0-0.043-0.006-0.086-0.016-0.126l0.001 0.003-0.301-1.197 3.068 1.753c0.071 0.041 0.157 0.066 0.248 0.066 0.173 0 0.325-0.088 0.415-0.221l0.001-0.002s1.041-1.574 1.046-1.586c0.002-0.005 0.524-2.070 0.524-2.070 0.009-0.036 0.015-0.078 0.015-0.121 0-0.195-0.111-0.363-0.274-0.446l-0.003-0.001-1-0.5c-0.065-0.033-0.142-0.053-0.224-0.053-0.138 0-0.263 0.056-0.354 0.146v0s-1.091 1.115-1.115 1.181l-1.216-0.68 2.058-2.316c0.068-0.076 0.113-0.173 0.124-0.28l0-0.002 0.5-5c0.002-0.015 0.002-0.031 0.002-0.049 0-0.035-0.004-0.070-0.011-0.103l0.001 0.003-0.782-3.913c-0.325-1.582-1.513-2.821-3.041-3.213l-0.029-0.006-0.998-0.25-2.786-0.928-0.355-0.71v-0.757l0.3-0.225c0.122-0.092 0.2-0.237 0.2-0.4v0-1c0.276 0 0.5-0.224 0.5-0.5v0-1.922c0.317-0.943 0.5-2.029 0.5-3.158 0-0.001 0-0.001 0-0.002v0-0.418c0-0.276-0.224-0.5-0.5-0.5v0h-2.586c-0.003 0-0.007 0-0.011 0-1.048 0-1.999 0.415-2.699 1.089l0.001-0.001-0.812 0.406c-0.833 0.423-1.395 1.274-1.395 2.256s0.561 1.833 1.38 2.25l0.014 0.007 0.11 0.055c0.031 0.249 0.241 0.439 0.496 0.439h0v1c0 0.163 0.078 0.308 0.199 0.399l0.001 0.001 0.3 0.225v0.757l-0.362 0.724-2.234 0.894h-0.327c-2.382 0-4.361 1.728-4.75 3.999l-0.004 0.029-0.294 1.762-1.918 2.398c-0.068 0.085-0.11 0.194-0.11 0.313 0 0.029 0.002 0.057 0.007 0.085l-0-0.003zM10.5 29.004l0.438-1.314 1.644-0.274c0.185-0.032 0.333-0.161 0.391-0.332l0.001-0.004 0.333-0.997 3.672 1.469-0.395 0.592c-0.053 0.078-0.084 0.174-0.084 0.278 0 0.158 0.073 0.298 0.187 0.39l0.001 0.001 1.387 1.11h-7.575v-0.919zM11.154 18.183l0.214 1.711-1.077-0.602 0.863-1.11zM15.3 14.523c0.193 0.145 0.436 0.232 0.7 0.232s0.507-0.087 0.703-0.234l-0.003 0.002c0.919-0.698 1.558-1.722 1.745-2.897l0.003-0.026 0.050 0.016c-0.024 1.7-0.379 3.311-1.002 4.78l0.031-0.083c-0.281 0.676-0.575 1.244-0.907 1.787l0.032-0.056-0.152-0.030v-1.59c0-0.276-0.224-0.5-0.5-0.5s-0.5 0.224-0.5 0.5v0 1.61l-1.442 0.36-1.834-0.917c-0.046-0.023-0.098-0.040-0.154-0.048l-0.003-0-0.067-0.536v-4.63l1.558-0.623c0.198 1.185 0.833 2.195 1.731 2.877l0.011 0.008zM20.089 29.127l-0.626 0.626-1.792-1.434 0.65-0.976 0.48-0.16 0.013-0.005 1.751 1.001-0.012 0.021-0.464 0.927zM16.713 22.882l1.204-1.324c1.013-1.11 1.852-2.401 2.462-3.813l0.034-0.089-0.895 3.131c-0.012 0.041-0.019 0.088-0.019 0.137v0 3.515l-2.786-1.557zM20.5 20.993l0.628-2.197 0.372 0.745v3.222l-1 1.4v-3.17zM20.5 12.29c0 0.003 0 0.006 0 0.010 0 3.312-1.262 6.329-3.332 8.596l0.009-0.010-1.359 1.496-1.006-0.562 0.653-0.653c2.373-2.372 3.884-5.607 4.024-9.193l0.001-0.026 1.010 0.337v0.006zM12.451 20.499l-0.239-1.911 1.564 0.782c0.107 0.053 0.229 0.067 0.345 0.038l1.891-0.472 0.041 0.008c-0.411 0.561-0.836 1.055-1.295 1.515l-0.854 0.854-1.454-0.812zM9.67 20.091l4.943 2.762-0.528 0.793c-0.053 0.078-0.084 0.174-0.084 0.277 0 0.276 0.224 0.5 0.5 0.5 0.173 0 0.325-0.088 0.415-0.221l0.001-0.002 0.572-0.858 0.703 0.392-0.607 0.911c-0.053 0.078-0.084 0.174-0.084 0.277 0 0.276 0.224 0.5 0.5 0.5 0.173 0 0.325-0.088 0.415-0.221l0.001-0.002 0.651-0.976 1.732 0.968-0.736 1.182-0.221 0.074c-0.108 0.037-0.196 0.105-0.257 0.195l-0.001 0.002-0.038 0.057-4.265-1.706-1.427-1.427c-0.090-0.090-0.215-0.146-0.354-0.146-0 0-0 0-0.001 0h-1.26l-1.603-2.004 1.033-1.328zM20.707 29.923l0.146-0.146c0.038-0.038 0.070-0.082 0.094-0.13l0.228-0.454 0.184 0.731h-0.652zM25.343 29.758l-6.054-3.46 0.384-0.617 6.111 3.415-0.441 0.662zM26.099 27.032l0.319 0.159-0.244 0.977-0.777-0.434 0.702-0.702zM23.363 13.493c0.429 0.428 0.734 0.978 0.861 1.594l0.003 0.020 0.768 3.84-0.476 4.764-2.097 2.359-1.469-0.821 1.454-2.036c0.058-0.081 0.093-0.182 0.093-0.291 0-0 0-0 0-0v0-3.5c0-0 0-0 0-0 0-0.082-0.020-0.158-0.054-0.226l0.001 0.003-0.947-1.894v-4.742l0.396 0.099c0.578 0.147 1.074 0.438 1.468 0.831v0zM14 6.423v-1h4v1h-0.882l-0.894-0.447c-0.065-0.033-0.142-0.053-0.224-0.053s-0.158 0.019-0.226 0.054l0.003-0.001-0.894 0.447h-0.882zM12.5 4.673c0-0.002 0-0.003 0-0.005 0-0.591 0.339-1.103 0.833-1.353l0.009-0.004 0.882-0.441c0.048-0.024 0.092-0.056 0.13-0.094 0.524-0.527 1.25-0.853 2.052-0.853 0.003 0 0.006 0 0.008 0h2.085c-0.008 0.894-0.141 1.753-0.384 2.565l0.017-0.065h-4.632c-0.276 0-0.5 0.224-0.5 0.5v0 0.879c-0.308-0.278-0.5-0.679-0.5-1.124 0-0.002 0-0.003 0-0.005v0zM15 7.423c0.078 0 0.154-0.018 0.224-0.053l0.776-0.388 0.776 0.388c0.069 0.035 0.146 0.053 0.224 0.053h0.5v0.75l-1 0.75h-1l-1-0.75v-0.75h0.5zM15.034 9.823c0.086 0.065 0.192 0.1 0.3 0.1h1.333c0.108 0 0.213-0.035 0.3-0.1l0.033-0.025v0.125c0 0.078 0.018 0.154 0.053 0.224l0.444 0.887c-0.038 1.098-0.574 2.064-1.388 2.683l-0.009 0.006c-0.028 0.021-0.062 0.033-0.1 0.033s-0.072-0.012-0.1-0.033l0 0c-0.823-0.625-1.359-1.591-1.397-2.683l-0-0.006 0.444-0.887c0.035-0.070 0.053-0.146 0.053-0.224v-0.125l0.034 0.025zM6.89 17.735c0.054-0.066 0.089-0.146 0.103-0.23l0.315-1.89c0.308-1.797 1.836-3.153 3.688-3.191l0.004-0v4.328l-1.735 2.23c-0.124 0.067-0.215 0.181-0.249 0.319l-0.001 0.003-1.41 1.812c-0.066 0.084-0.106 0.191-0.106 0.307 0 0.119 0.041 0.228 0.11 0.313l-0.001-0.001 2 2.5c0.092 0.115 0.233 0.188 0.39 0.188 0 0 0 0 0 0h1.293l1.135 1.135-0.307 0.921-2.282 0.38-0.365-1.095c-0.034-0.099-0.094-0.181-0.173-0.241l-0.001-0.001-3.84-2.88-0.43-2.582 1.86-2.326z"></path>
</symbol>
<symbol id="icon-documentary" viewBox="0 0 32 32">
<path fill="#fff" style="fill: var(--color1, #fff)" d="M20.691 27.666c0.404-0.437 0.577-0.974 0.577-1.566 0-0.595-0.17-1.134-0.577-1.572-0.397-0.426-0.898-0.623-1.476-0.623-0.579 0-1.086 0.191-1.486 0.616-0.409 0.435-0.578 0.973-0.578 1.568 0 0.598 0.168 1.143 0.579 1.582 0.398 0.426 0.9 0.623 1.479 0.623 0.581 0 1.084-0.198 1.481-0.628zM18.562 26.96c-0.193-0.246-0.251-0.559-0.251-0.866 0-0.304 0.064-0.605 0.258-0.844 0.166-0.205 0.377-0.308 0.641-0.308 0.266 0 0.482 0.098 0.646 0.308 0.193 0.244 0.253 0.55 0.253 0.855s-0.064 0.609-0.255 0.851c-0.166 0.21-0.379 0.311-0.645 0.311-0.268 0-0.482-0.097-0.648-0.308zM16.534 23.976h-2.079c-0.142 0-0.266 0.055-0.363 0.158-0.096 0.101-0.147 0.223-0.147 0.363 0 0.147 0.051 0.274 0.156 0.377 0.097 0.092 0.214 0.147 0.349 0.147h0.485v2.683c0 0.154 0.057 0.288 0.164 0.396l0.002 0.004 0.004 0.002c0.113 0.101 0.248 0.163 0.4 0.163 0.151 0 0.282-0.060 0.386-0.168 0.106-0.11 0.163-0.243 0.163-0.396v-2.677h0.48c0.14 0 0.264-0.051 0.363-0.152s0.152-0.225 0.152-0.366c0-0.143-0.051-0.271-0.15-0.373-0.090-0.097-0.219-0.158-0.362-0.158-0.001 0-0.002 0-0.003 0h0zM12.506 27.107c-0.090 0.069-0.2 0.094-0.313 0.094-0.176 0-0.379-0.062-0.542-0.122-0.115-0.040-0.31-0.111-0.43-0.111-0.142 0-0.266 0.053-0.36 0.159-0.087 0.097-0.14 0.226-0.14 0.368 0 0.005 0 0.010 0 0.016l-0-0.001v0.028c0 0.273 0.214 0.444 0.439 0.552 0.305 0.146 0.656 0.19 0.988 0.19 0.432 0 0.852-0.104 1.183-0.398 0.31-0.276 0.455-0.63 0.455-1.046 0-0.439-0.17-0.796-0.546-1.026-0.232-0.149-0.549-0.248-0.813-0.324-0.13-0.034-0.235-0.068-0.338-0.107l0.023 0.008c-0.052-0.016-0.096-0.037-0.138-0.062l0.003 0.002c-0.034-0.028-0.072-0.067-0.072-0.115 0-0.067 0.034-0.113 0.085-0.152 0.074-0.055 0.161-0.076 0.252-0.076 0.086 0 0.198 0.028 0.281 0.051l0.158 0.055c0.097 0.032 0.227 0.073 0.329 0.073 0.144 0 0.266-0.057 0.361-0.163 0.096-0.104 0.144-0.232 0.144-0.374 0-0.246-0.168-0.414-0.372-0.525-0.253-0.136-0.545-0.182-0.829-0.182-0.416 0-0.804 0.11-1.124 0.382-0.301 0.26-0.454 0.595-0.454 0.994 0 0.38 0.14 0.698 0.46 0.906 0.096 0.064 0.213 0.114 0.321 0.156 0.158 0.060 0.32 0.111 0.484 0.159 0.15 0.044 0.328 0.095 0.471 0.161 0.039 0.018 0.092 0.048 0.115 0.087 0.019 0.036 0.030 0.079 0.030 0.124 0 0.002-0 0.003-0 0.005v-0c0 0.092-0.037 0.159-0.112 0.216zM26.717 28.101c0.11 0.106 0.241 0.166 0.393 0.166 0.156 0 0.292-0.060 0.398-0.175 0.104-0.112 0.161-0.246 0.161-0.4v-1.433l1.040-1.423c0.074-0.101 0.109-0.216 0.109-0.34 0-0.156-0.060-0.29-0.173-0.396-0.1-0.101-0.239-0.163-0.392-0.163v0c-0.193 0-0.349 0.085-0.457 0.244l-0.687 0.986-0.682-0.986c-0.094-0.148-0.257-0.244-0.443-0.244-0.005 0-0.010 0-0.015 0l0.001-0c-0.003-0-0.007-0-0.011-0-0.157 0-0.298 0.064-0.4 0.168l-0 0c-0.103 0.099-0.166 0.237-0.166 0.391 0 0 0 0 0 0v0c0 0.126 0.048 0.241 0.122 0.34l1.029 1.423v1.433c0 0.159 0.057 0.299 0.172 0.409zM25.033 25.342c0-0.389-0.136-0.724-0.428-0.984-0.298-0.265-0.664-0.375-1.061-0.375h-1.027c-0.158 0-0.296 0.055-0.406 0.166-0.103 0.102-0.167 0.244-0.167 0.401 0 0.005 0 0.009 0 0.014v-0.001 3.128c0 0.158 0.055 0.296 0.166 0.407l0.002 0.004 0.002 0.002c0.115 0.101 0.248 0.163 0.402 0.163 0.15 0 0.285-0.053 0.393-0.161 0.108-0.11 0.161-0.244 0.161-0.398v-0.904l1.001 1.231c0.113 0.14 0.258 0.232 0.441 0.232 0.152 0 0.288-0.055 0.402-0.159l0.004-0.002 0.002-0.003c0.103-0.114 0.163-0.246 0.163-0.4 0-0.14-0.052-0.262-0.145-0.366l-0.754-0.83c0.127-0.035 0.257-0.083 0.358-0.152 0.347-0.239 0.492-0.596 0.492-1.012zM23.806 25.61c-0.065 0.065-0.154 0.104-0.252 0.104-0.002 0-0.003 0-0.005-0h-0.473v-0.681h0.462c0.101 0 0.191 0.026 0.264 0.101l0.002 0.002 0.004 0.002c0.065 0.054 0.106 0.135 0.106 0.226 0 0.001 0 0.002 0 0.002v-0c0 0.001 0 0.001 0 0.002 0 0.096-0.042 0.182-0.108 0.242l-0 0zM7.174 28.108c0.108 0.11 0.242 0.164 0.396 0.164 0.156 0 0.29-0.058 0.399-0.172 0.104-0.11 0.161-0.241 0.161-0.393v-3.201c0-0.157-0.055-0.295-0.165-0.408-0.099-0.103-0.238-0.166-0.391-0.166-0.001 0-0.002 0-0.003 0h0c-0.154 0-0.287 0.065-0.394 0.177-0.104 0.112-0.166 0.244-0.166 0.398v1.023h-1.468v-1.023c0-0.156-0.055-0.292-0.161-0.403-0.097-0.106-0.236-0.172-0.39-0.172-0.001 0-0.002 0-0.003 0h0c-0.156 0-0.29 0.064-0.399 0.177-0.102 0.102-0.166 0.242-0.166 0.398v3.201c0 0.156 0.055 0.292 0.166 0.402 0.11 0.108 0.244 0.163 0.399 0.163s0.288-0.055 0.395-0.164c0.108-0.11 0.159-0.246 0.159-0.4v-1.134h1.468v1.134c0 0.156 0.055 0.29 0.163 0.4zM9.090 24.109c-0.104 0.112-0.166 0.244-0.166 0.398v3.196c0 0.154 0.055 0.29 0.163 0.4s0.244 0.164 0.397 0.164c0.154 0 0.288-0.054 0.397-0.164 0.108-0.108 0.163-0.241 0.163-0.395v-3.201c0-0.156-0.053-0.292-0.161-0.404-0.097-0.106-0.236-0.172-0.39-0.172-0.001 0-0.002 0-0.003 0h0c-0.156 0-0.29 0.064-0.398 0.177z"></path>
<path fill="#fff" style="fill: var(--color1, #fff)" d="M31.37 9.983h-23.458l23.030-4.452c0.293-0.058 0.511-0.313 0.511-0.619 0-0.042-0.004-0.084-0.012-0.124l0.001 0.004-0.696-3.594c-0.058-0.293-0.313-0.511-0.619-0.511-0.042 0-0.084 0.004-0.123 0.012l0.004-0.001-6.6 1.276c-0.018 0.003-0.031 0.005-0.045 0.008l-22.851 4.417c-0.293 0.058-0.511 0.313-0.511 0.619 0 0.042 0.004 0.084 0.012 0.124l-0.001-0.004 0.684 3.534v20.009c0 0.348 0.282 0.63 0.63 0.63h12.034c0.005 0 0.010 0 0.016 0 0.348 0 0.63-0.282 0.63-0.63s-0.282-0.63-0.63-0.63c-0.006 0-0.011 0-0.017 0l0.001-0h-11.404v-15.148h28.784v15.148h-11.705c-0.005-0-0.010-0-0.016-0-0.348 0-0.63 0.282-0.63 0.63s0.282 0.63 0.63 0.63c0.006 0 0.011-0 0.017-0l-0.001 0h12.335c0.348 0 0.63-0.282 0.63-0.63v-20.070c0-0.348-0.282-0.63-0.63-0.63zM21.268 13.644l1.802-2.4h3.506l-1.802 2.4h-3.506zM16.185 13.644l1.801-2.4h3.508l-1.802 2.4h-3.507zM11.1 13.644l1.802-2.4h3.507l-1.801 2.4h-3.508zM6.018 13.644l1.802-2.4h3.506l-1.802 2.4h-3.507zM1.956 10.613c0.009-0.349 0.294-0.629 0.645-0.629s0.636 0.28 0.645 0.628l0 0.001c-0.009 0.349-0.294 0.629-0.645 0.629s-0.636-0.28-0.645-0.628l-0-0.001zM8.379 6.164l2.521 1.958-3.347 0.647-2.52-1.958 3.346-0.647zM13.369 5.199l2.52 1.958-3.345 0.647-2.521-1.958 3.345-0.647zM18.36 4.235l2.52 1.958-3.344 0.647-2.52-1.958 3.345-0.647zM23.352 3.27l2.519 1.958-3.346 0.647-2.52-1.958 3.347-0.647zM30.084 4.413l-2.568 0.496-2.519-1.958 4.631-0.896 0.456 2.356zM3.388 7.128l2.52 1.959-1.81 0.35c-0.352-0.445-0.891-0.727-1.496-0.727-0.351 0-0.679 0.095-0.962 0.26l0.009-0.005-0.28-1.446 2.019-0.39zM1.956 12.406c0.191 0.071 0.412 0.112 0.643 0.112 0.001 0 0.001 0 0.002 0h-0c0.826-0.001 1.528-0.526 1.793-1.261l0.004-0.013h1.845l-1.802 2.4h-2.486v-1.239zM26.351 13.644l1.802-2.4h2.586v2.4h-4.388z"></path>
<path fill="#fff" style="fill: var(--color1, #fff)" d="M28.196 21.616c0.348 0 0.63-0.282 0.63-0.63v-2.578c0-0.348-0.282-0.63-0.63-0.63h-24.050c-0.348 0-0.63 0.282-0.63 0.63v2.578c0 0.348 0.282 0.63 0.63 0.63h24.050zM27.566 20.356h-7.012v-1.318h7.012v1.318zM19.294 20.356h-7.286v-1.318h7.286v1.318zM4.776 19.038h5.97v1.318h-5.97v-1.318zM16.22 30.053h-0.010c-0.348 0-0.63 0.282-0.63 0.63s0.282 0.63 0.63 0.63v0h0.010c0.005 0 0.010 0 0.016 0 0.348 0 0.63-0.282 0.63-0.63s-0.282-0.63-0.63-0.63c-0.006 0-0.011 0-0.017 0l0.001-0z"></path>
</symbol>
<symbol id="icon-cinema" viewBox="0 0 32 32">
<path fill="#fff" style="fill: var(--color1, #fff)" d="M29.971 1.252l-0.516-0.129c-2.614-0.678-5.614-1.068-8.706-1.068s-6.092 0.389-8.956 1.122l0.249-0.054-0.515 0.129c-1.175 0.3-2.029 1.348-2.029 2.596 0 0.001 0 0.002 0 0.003v-0 3.73c-2.921 0.838-5.46 1.913-7.833 3.249l0.181-0.094-0.468 0.258c-0.828 0.464-1.378 1.336-1.378 2.336 0 0.248 0.034 0.489 0.097 0.717l-0.004-0.019 1.559 5.83c1.449 5.27 5.289 9.419 10.25 11.267l0.115 0.037 1.607 0.59c0.488 0.181 1.052 0.286 1.64 0.286 1.482 0 2.809-0.666 3.698-1.714l0.006-0.007 1.098-1.311c0.98-1.16 1.815-2.489 2.448-3.927l0.041-0.105c0.338-0.131 0.66-0.301 0.96-0.505l1.401-0.981c4.305-3.044 7.082-8.001 7.084-13.606v-6.031c0-0.001 0-0.001 0-0.002 0-1.248-0.854-2.297-2.010-2.593l-0.019-0.004zM19.246 28.316l-1.098 1.312c-0.696 0.821-1.728 1.339-2.881 1.339-0.458 0-0.897-0.082-1.303-0.231l0.026 0.008-1.607-0.589c-4.748-1.764-8.341-5.645-9.67-10.466l-0.026-0.109-1.56-5.83c-0.035-0.125-0.055-0.269-0.055-0.417 0-0.6 0.33-1.122 0.818-1.396l0.008-0.004 0.467-0.258c2.040-1.157 4.405-2.17 6.886-2.915l0.248-0.064v1.186c0.004 4.985 2.201 9.455 5.679 12.499l0.019 0.017c-0.864 0.362-1.865 0.613-2.912 0.706l-0.038 0.003-4.029 0.327c-0.277 0.023-0.493 0.253-0.493 0.534 0 0.216 0.128 0.402 0.312 0.487l0.003 0.001 5.341 2.411c0.325 0.151 0.705 0.239 1.106 0.239 0.893 0 1.684-0.437 2.17-1.109l0.005-0.008 1.169-1.626 0.153 0.107c0.769 0.543 1.726 0.868 2.759 0.868 0.002 0 0.004 0 0.006 0h-0c0.16 0 0.316-0.020 0.474-0.036-0.578 1.148-1.236 2.137-1.997 3.038l0.019-0.023zM16.142 23.16c0.146 0.107 0.289 0.223 0.439 0.328l0.371 0.259-1.161 1.616c-0.295 0.407-0.77 0.669-1.305 0.669-0.241 0-0.469-0.053-0.674-0.148l0.010 0.004-3.449-1.554 1.96-0.16c1.405-0.121 2.698-0.482 3.877-1.043l-0.068 0.029zM30.929 9.881c-0.002 5.244-2.6 9.881-6.578 12.696l-0.049 0.033-1.401 0.981c-0.6 0.423-1.346 0.676-2.151 0.676s-1.551-0.253-2.163-0.684l0.012 0.008-1.401-0.981c-4.027-2.848-6.625-7.485-6.628-12.728v-6.031c0-0.749 0.513-1.379 1.207-1.556l0.011-0.002 0.516-0.129c2.536-0.658 5.447-1.036 8.446-1.036s5.91 0.378 8.688 1.089l-0.242-0.053 0.516 0.129c0.705 0.181 1.217 0.81 1.217 1.559 0 0 0 0 0 0v0 6.031z"></path>
<path fill="#fff" style="fill: var(--color1, #fff)" d="M18.763 10.057l0.731-0.784c-1.675-1.671-4.387-1.671-6.062 0l-0.027 0.027 0.784 0.731c0.582-0.582 1.386-0.942 2.274-0.942 0.901 0 1.716 0.371 2.299 0.968l0.001 0.001zM22.004 9.273l-0.026 0.027 0.784 0.731c0.582-0.582 1.386-0.942 2.274-0.942 0.901 0 1.716 0.371 2.299 0.968l0.001 0.001 0.731-0.784c-1.675-1.671-4.387-1.671-6.062 0zM7.639 17.822c0.25-0.070 0.537-0.11 0.833-0.11 0.606 0 1.174 0.168 1.658 0.46l-0.014-0.008 0.499-0.949c-2.050-1.184-4.671-0.482-5.855 1.568l-0.019 0.033 0.464 0.268 0.482 0.234c0.425-0.731 1.113-1.269 1.93-1.491l0.022-0.005zM26.546 15.044l-3.976 0.724c-1.204 0.219-2.438 0.219-3.643 0l-3.976-0.724c-0.029-0.006-0.063-0.009-0.097-0.009-0.296 0-0.536 0.24-0.536 0.536 0 0.167 0.076 0.316 0.196 0.415l0.001 0.001 4.537 3.711c0.459 0.376 1.051 0.603 1.696 0.603s1.238-0.228 1.701-0.607l-0.005 0.004 4.536-3.712c0.12-0.099 0.197-0.248 0.197-0.415 0-0.296-0.24-0.536-0.536-0.536-0.034 0-0.067 0.003-0.1 0.009l0.003-0.001v0.001zM21.767 18.868c-0.275 0.226-0.631 0.362-1.018 0.362s-0.743-0.137-1.021-0.365l0.003 0.002-2.933-2.399 1.938 0.352c1.331 0.244 2.694 0.244 4.025 0l1.938-0.352-2.932 2.399z"></path>
</symbol>
<symbol id="icon-hearts" viewBox="0 0 32 32">
<path fill="#fff" style="fill: var(--color1, #fff)" d="M31.698 12.904c0-2.305-0.876-4.466-2.466-6.086-1.599-1.628-3.744-2.525-6.039-2.525-0.004 0-0.008 0-0.012 0-2.99 0-5.623 1.527-7.161 3.844l-0.020 0.032c-1.558-2.349-4.191-3.876-7.181-3.876-0.004 0-0.009 0-0.013 0h0.001c-2.295 0-4.44 0.897-6.039 2.525-1.59 1.62-2.466 3.781-2.466 6.086 0 2.16 0.625 3.423 1.128 4.438l0.054 0.11c2.080 4.214 13.71 13.88 14.204 14.289l0.311 0.258 0.312-0.257c0.012-0.010 1.109-0.915 2.671-2.27 0.741 0.665 1.596 1.407 2.462 2.135l0.164 0.134 0.311 0.258 0.312-0.258c0.306-0.252 7.498-6.2 8.729-8.798l0.034-0.072c0.297-0.625 0.704-1.481 0.704-2.783 0-1.13-0.33-2.199-0.957-3.113 0.421-0.902 0.957-2.204 0.957-4.072zM30.11 22.452l-0.035 0.074c-1.002 2.114-6.746 7.017-8.156 8.201-1.021-0.863-1.869-1.604-2.706-2.359l0.1 0.088c-1.711-1.54-3.084-2.88-4.053-3.953-0.226-0.248-0.46-0.519-0.686-0.796l-0.028-0.035c-0.060-0.073-0.135-0.169-0.21-0.266l-0.022-0.029c-0.251-0.332-0.438-0.62-0.556-0.859l-0.020-0.041c-0.286-0.578-0.61-1.234-0.61-2.388 0-2.507 1.931-4.471 4.396-4.471 1.666 0 3.184 0.918 3.96 2.394l0.433 0.824 0.433-0.824c0.762-1.434 2.246-2.394 3.955-2.394 0.002 0 0.004 0 0.006 0h-0c1.372 0 2.639 0.623 3.475 1.709 0.61 0.792 0.932 1.747 0.932 2.762 0 1.081-0.324 1.762-0.609 2.363zM30.042 16.146l-0.007-0.006c-0.054-0.052-0.109-0.103-0.165-0.153l-0.029-0.026c-0.115-0.102-0.241-0.203-0.371-0.299l-0.015-0.011-0.016-0.011c-0.059-0.043-0.12-0.084-0.18-0.124l-0.028-0.019c-0.115-0.076-0.253-0.158-0.396-0.234l-0.028-0.014-0.024-0.012c-0.064-0.034-0.129-0.065-0.194-0.096l-0.025-0.012c-0.115-0.056-0.266-0.118-0.42-0.173l-0.036-0.011-0.030-0.010c-0.069-0.024-0.138-0.046-0.208-0.067l-0.020-0.006c-0.035-0.012-0.109-0.033-0.183-0.051l-0.036-0.008-0.043-0.011c-0.037-0.011-0.111-0.027-0.186-0.042l-0.033-0.006-0.037-0.007c-0.041-0.009-0.116-0.022-0.192-0.034l-0.030-0.004-0.012-0.002c-0.076-0.011-0.153-0.020-0.23-0.028l-0.044-0.004c-0.056-0.006-0.134-0.012-0.213-0.016l-0.014-0.001-0.042-0.002c-0.073-0.004-0.16-0.006-0.246-0.006-1.794 0-3.385 0.869-4.375 2.209l-0.010 0.015c-1-1.355-2.592-2.224-4.386-2.224-0.003 0-0.005 0-0.008 0h0c-0.272 0-0.542 0.020-0.806 0.059-1.191 0.181-2.229 0.736-3.013 1.54l-0.001 0.001c-1.003 1.024-1.555 2.391-1.555 3.85 0 1.382 0.394 2.18 0.711 2.821l0.020 0.041c0.019 0.038 0.039 0.076 0.060 0.116l0.021 0.038 0.046 0.082 0.029 0.048 0.046 0.077c0.011 0.018 0.023 0.036 0.034 0.054l0.048 0.076c0.012 0.019 0.026 0.039 0.039 0.059 0.016 0.025 0.033 0.050 0.051 0.076 0.014 0.021 0.028 0.042 0.043 0.062l0.054 0.078 0.047 0.066 0.058 0.079 0.051 0.069 0.061 0.081 0.055 0.072c0.091 0.118 0.154 0.197 0.217 0.275l-0.026-0.034c0.112 0.139 0.203 0.247 0.294 0.354l-0.018-0.022 0.070 0.082c0.073 0.085 0.122 0.142 0.173 0.199l-0.020-0.023 0.082 0.093c0.11 0.124 0.19 0.213 0.27 0.301l-0.026-0.029c0.072 0.079 0.129 0.141 0.187 0.202l-0.012-0.013 0.093 0.1 0.089 0.094 0.096 0.101 0.093 0.098 0.1 0.104 0.096 0.1 0.106 0.108 0.098 0.1 0.113 0.114 0.098 0.098 0.12 0.12c0.101 0.101 0.206 0.203 0.31 0.306l0.009 0.009 0.113 0.11 0.12 0.116c0.040 0.038 0.080 0.078 0.121 0.116l0.119 0.114c0.041 0.040 0.084 0.080 0.126 0.12l0.122 0.116 0.127 0.12c0.042 0.040 0.084 0.080 0.128 0.12 0.043 0.041 0.088 0.082 0.132 0.124l0.128 0.12 0.139 0.129c0.1 0.094 0.233 0.216 0.366 0.337l0.041 0.037 0.23 0.21c-0.521 0.457-1.253 1.083-1.989 1.703l-0.259 0.212c-1.896-1.592-11.834-10.049-13.64-13.708l-0.055-0.111c-0.481-0.971-1.026-2.072-1.026-4.004 0-4.28 3.306-7.632 7.526-7.632 0.003 0 0.006 0 0.009 0 2.917 0 5.45 1.639 6.731 4.046l0.020 0.041 0.433 0.824 0.433-0.824c1.3-2.449 3.834-4.088 6.751-4.088 0.003 0 0.006 0 0.010 0h-0c4.22 0 7.526 3.352 7.526 7.632 0 1.407-0.334 2.44-0.678 3.241zM9.245 0h-0.979v3.047h0.979v-3.047zM12.984 0.889l-1.28 2.766 0.888 0.411 1.28-2.765-0.888-0.411zM4.528 0.888l-0.888 0.411 1.279 2.766 0.888-0.411-1.279-2.766z"></path>
<path fill="#fff" style="fill: var(--color1, #fff)" d="M3.37 13.439c0-0.046 0-0.092 0.001-0.138l-0.978-0.020c-0.001 0.052-0.002 0.105-0.002 0.158 0 0.656 0.066 1.255 0.204 1.829l0.952-0.228c-0.12-0.498-0.177-1.022-0.177-1.601zM4.696 8.059c-1.173 1.102-1.958 2.592-2.212 4.195l0.967 0.153c0.22-1.39 0.9-2.681 1.916-3.635l-0.671-0.713zM16.278 16.677c-1.346 0.624-2.226 1.949-2.297 3.458l0.978 0.046c0.054-1.143 0.717-2.145 1.731-2.616l-0.412-0.888z"></path>
</symbol>
<symbol id="icon-starRating" viewBox="0 0 32 32">
<path fill="#ffb800" style="fill: var(--color2, #ffb800)" d="M7.224 30.886c-0.772 0.396-1.648-0.298-1.492-1.184l1.66-9.46-7.046-6.712c-0.658-0.628-0.316-1.776 0.566-1.9l9.796-1.392 4.368-8.654c0.394-0.78 1.46-0.78 1.854 0l4.368 8.654 9.796 1.392c0.882 0.124 1.224 1.272 0.566 1.9l-7.046 6.712 1.66 9.46c0.156 0.886-0.72 1.58-1.492 1.184l-8.782-4.512-8.776 4.512z"></path>
</symbol>
<symbol id="icon-person" viewBox="0 0 30 32">
<path fill="#fff" style="fill: var(--color1, #fff)" d="M21.096 20.304c0.903-0.484 1.975-0.768 3.113-0.768 0.002 0 0.005 0 0.007 0h0.004c0.115 0 0.17-0.133 0.085-0.208-1.135-0.999-2.45-1.83-3.884-2.434l-0.094-0.035-0.045-0.018c2.381-1.691 3.93-4.44 3.93-7.541 0-5.138-4.248-9.301-9.491-9.301-5.242 0-9.488 4.163-9.488 9.301 0 3.101 1.55 5.85 3.936 7.541-0.016 0.008-0.032 0.011-0.048 0.018-1.776 0.744-3.293 1.765-4.575 3.026l0.002-0.002c-1.28 1.248-2.32 2.735-3.048 4.39l-0.035 0.090c-0.677 1.524-1.088 3.299-1.128 5.165l-0 0.015c-0 0.003-0 0.006-0 0.009 0 0.081 0.033 0.155 0.087 0.208v0c0.056 0.055 0.132 0.090 0.217 0.090 0.001 0 0.003 0 0.004-0h2.296c0.001 0 0.002 0 0.003 0 0.164 0 0.298-0.13 0.304-0.292l0-0.001c0.080-3.012 1.351-5.711 3.357-7.658l0.003-0.003c2.076-2.038 4.924-3.296 8.065-3.296 0.019 0 0.037 0 0.056 0h-0.003c2.174 0 4.259 0.589 6.059 1.691 0.047 0.029 0.104 0.047 0.165 0.047 0.053 0 0.103-0.013 0.147-0.037l-0.002 0.001zM14.726 15.749c-1.757 0-3.41-0.672-4.656-1.89-0.597-0.582-1.080-1.277-1.414-2.051l-0.016-0.042c-0.316-0.729-0.5-1.578-0.5-2.47 0-1.788 0.739-3.404 1.929-4.558l0.002-0.002c1.19-1.167 2.823-1.888 4.623-1.888 0.011 0 0.023 0 0.034 0h-0.002c1.76 0 3.408 0.67 4.656 1.888 0.613 0.598 1.098 1.31 1.429 2.093 0.316 0.729 0.5 1.578 0.5 2.47 0 1.788-0.739 3.404-1.929 4.558l-0.002 0.002c-1.192 1.168-2.826 1.888-4.629 1.888-0.010 0-0.019-0-0.029-0h0.001zM28.83 24.674h-3.221v-3.15c-0.003-0.166-0.138-0.299-0.304-0.299-0.001 0-0.002 0-0.003 0h-2.147c-0.001 0-0.002-0-0.003-0-0.166 0-0.301 0.133-0.304 0.299v3.151h-3.221c-0.001 0-0.002-0-0.003-0-0.166 0-0.301 0.133-0.304 0.299v2.101c0.003 0.166 0.138 0.299 0.304 0.299 0.001 0 0.002 0 0.003-0h3.221v3.152c0.003 0.166 0.138 0.299 0.304 0.299 0.001 0 0.002 0 0.003-0h2.147c0.001 0 0.002 0 0.003 0 0.167 0 0.302-0.134 0.304-0.301v-3.147h3.221c0.001 0 0.002 0 0.003 0 0.166 0 0.301-0.133 0.304-0.299v-2.101c-0.003-0.166-0.138-0.299-0.304-0.299-0.001 0-0.002 0-0.003 0h0z"></path>
</symbol>
<symbol id="icon-notification" viewBox="0 0 29 32">
<path fill="#fff" style="fill: var(--color1, #fff)" d="M13.289 31.357c0.56-0.013 1.097-0.237 1.516-0.631 0.42-0.392 0.695-0.931 0.777-1.517h-4.676c0.084 0.603 0.372 1.153 0.809 1.549 0.406 0.371 0.949 0.599 1.545 0.599 0.010 0 0.020-0 0.030-0h-0.002z"></path>
<path fill="none" stroke="#fff" style="stroke: var(--color1, #fff)" stroke-linejoin="miter" stroke-linecap="butt" stroke-miterlimit="4" stroke-width="1.3333" d="M13.289 31.357c0.56-0.013 1.097-0.237 1.516-0.631 0.42-0.392 0.695-0.931 0.777-1.517h-4.676c0.084 0.603 0.372 1.153 0.809 1.549 0.406 0.371 0.949 0.599 1.545 0.599 0.010 0 0.020-0 0.030-0h-0.002z"></path>
<path fill="#fff" style="fill: var(--color1, #fff)" d="M26.363 24.553c-0.854-0.78-1.596-1.661-2.215-2.628l-0.031-0.052c-0.654-1.279-1.087-2.775-1.206-4.358l-0.002-0.039v-4.516c-0.004-0.581-0.055-1.147-0.151-1.698l0.009 0.061c-0.757-0.158-1.428-0.424-2.036-0.785l0.030 0.017c0.239 0.781 0.36 1.596 0.359 2.413v4.517c0.118 1.973 0.65 3.797 1.511 5.421l-0.035-0.072c0.619 1 1.351 1.92 2.184 2.743h-22.917c0.816-0.806 1.538-1.705 2.148-2.681l0.036-0.062c0.826-1.552 1.358-3.376 1.474-5.313l0.002-0.037v-4.525c-0-0.012-0-0.026-0-0.041 0-1.097 0.216-2.144 0.607-3.101l-0.020 0.055c0.414-1.017 0.989-1.887 1.703-2.622l-0.002 0.002c0.709-0.731 1.556-1.324 2.5-1.736l0.051-0.020c0.89-0.39 1.927-0.619 3.016-0.621h0.001c1.515 0.001 2.997 0.46 4.259 1.317-0.132-0.475-0.215-1.024-0.232-1.59l-0-0.010v-0.576c-0.862-0.444-1.865-0.766-2.924-0.909l-0.048-0.005v-1.152c0-0.001 0-0.001 0-0.002 0-0.335-0.133-0.638-0.35-0.861l0 0c-0.215-0.219-0.514-0.355-0.845-0.355s-0.63 0.136-0.844 0.355l-0 0c-0.216 0.222-0.349 0.526-0.349 0.861 0 0.001 0 0.001 0 0.002v-0 1.197c-2.405 0.361-4.479 1.567-5.948 3.301l-0.012 0.014c-1.468 1.731-2.36 3.989-2.36 6.457 0 0.014 0 0.029 0 0.043v-0.002 4.516c-0.121 1.623-0.554 3.119-1.239 4.465l0.031-0.067c-0.64 1.019-1.371 1.898-2.203 2.671l-0.008 0.007c-0.187 0.168-0.304 0.41-0.304 0.68 0 0.002 0 0.003 0 0.005v-0 1.244c0 0.243 0.093 0.475 0.263 0.647 0.167 0.171 0.395 0.267 0.632 0.267h24.877c0.248-0 0.471-0.102 0.632-0.267l0-0c0.162-0.166 0.263-0.394 0.263-0.645 0-0 0-0.001 0-0.001v0-1.244c-0.001-0.271-0.117-0.515-0.303-0.685l-0.001-0.001z"></path>
<path fill="#000" style="fill: var(--color3, #000)" d="M23.956 9.423c2.453 0 4.444-2.109 4.444-4.712 0-2.601-1.989-4.711-4.444-4.711s-4.445 2.109-4.445 4.711c0 2.603 1.991 4.712 4.445 4.712z"></path>
<path fill="#fff" stroke="#fff" style="stroke: var(--color1, #fff)" stroke-linejoin="miter" stroke-linecap="butt" stroke-miterlimit="4" stroke-width="1.3333" d="M23.956 9.423c2.453 0 4.444-2.109 4.444-4.712 0-2.601-1.989-4.711-4.444-4.711s-4.445 2.109-4.445 4.711c0 2.603 1.991 4.712 4.445 4.712z"></path>
</symbol>
<symbol id="icon-loop" viewBox="0 0 32 32">
<path fill="none" stroke="#fff" style="stroke: var(--color1, #fff)" stroke-linejoin="round" stroke-linecap="round" stroke-miterlimit="4" stroke-width="3.2" d="M30.4 30.4v0zM24 12.8c-0.003 6.185-5.018 11.198-11.203 11.198-1.545 0-3.018-0.313-4.357-0.879l0.074 0.028c-4.093-1.728-6.914-5.708-6.914-10.347 0-6.186 5.014-11.2 11.2-11.2s11.2 5.014 11.2 11.2c0 0 0 0 0 0v0z"></path>
</symbol>
</defs>
</svg>
