<svg xmlns="http://www.w3.org/2000/svg" width="157" height="70" fill="none"><defs><linearGradient id="a" x1="0" x2="70" y1="5" y2="70" gradientUnits="userSpaceOnUse"><stop stop-color="#326CFF"/><stop offset="1" stop-color="#26FFF2"/></linearGradient></defs><rect width="66" height="66" x="2" y="2" stroke="url(#a)" stroke-width="4" rx="14"/><path fill="#FFF" fill-rule="evenodd" d="M44.09 49.53q1.14 1.15 3.42 1.15c1.74 0 3.4-.6 5-1.8-.8-1.28-1.2-3.22-1.2-5.8 0-1.02.51-4.18 1.52-9.49 1.04-5.33 1.56-8.41 1.56-9.23 0-2.48-1.02-3.72-3.08-3.72q-2.26 0-4.3.66-.89.28-1.74.7-1.29.63-2.41 1.49-1.28.97-2.35 2.23-3.68 4.4-5.76 10.52h-.48q-.68-7.44-2.24-11.32c-.45-1.15-1.04-2.04-1.76-2.68q-1.04-.96-2.2-1.28c-.74-.24-1.66-.36-2.76-.36-2.48 0-5.22.97-8.24 2.92l2.12 4.28q-2.52 13.92-2.52 16.92 0 2.96 1.12 4.48.14.18.3.33 1.14 1.15 3.42 1.15.41 0 .82-.05 2.16-.24 4.18-1.75-1.2-1.92-1.2-5.44 0-3.53 1.96-12.12h.64q.64 10.44 2.12 14.16.76 1.84 1.52 2.6c.54.48 1.15.72 1.84.72q1.05 0 2-.31 1.37-.45 2.52-1.53c.24-2.38.9-5.04 1.96-8q1.6-4.44 4.04-7.64h.64q-1.88 10.52-1.88 13.44t1.12 4.44q.14.18.3.33ZM94.94 27.62q-2.02 1.01-3.19 2.62V19.4h-4.56V49h4.56v-3.21q1.17 1.56 3.14 2.57 1.98 1 4.55 1 1.71 0 3.24-.52 1.05-.35 2.01-.94.76-.46 1.41-1.04 1.41-1.25 2.33-3.04.02-.02.03-.05 1.33-2.61 1.33-5.9 0-3.32-1.36-5.9-.94-1.8-2.38-3.02-.62-.53-1.34-.95-.66-.4-1.36-.68-1.81-.73-3.91-.73-2.24 0-4.1.84-.2.09-.4.19Zm24.4 20.86q2.08.88 4.53.88 2.38 0 4.45-.8.68-.27 1.34-.62 1.21-.66 2.19-1.57 1.13-1.06 1.95-2.45.18-.31.33-.63 1.19-2.37 1.19-5.33 0-3.13-1.28-5.59l-.2-.38q-.88-1.52-2.12-2.63-.87-.79-1.93-1.36-.5-.27-1.02-.49-2.15-.92-4.69-.92-2.59 0-4.77.94-.49.21-.95.47-1.06.57-1.93 1.36-1.24 1.11-2.12 2.63-.09.16-.17.33-1.3 2.48-1.3 5.64 0 3.4 1.43 5.98.83 1.47 2.01 2.57.88.82 1.96 1.43.54.3 1.1.54Zm37.06.52-7.12-11.17 7.12-10.88h-4.76l-4.48 7.48-4.77-7.48h-5.15l7.12 11.21L137.24 49h4.75l4.48-7.49 4.77 7.49h5.16Zm-52.18-15.06q.93 1.66.93 3.93 0 2.29-.93 4.01-.76 1.39-1.92 2.24-.27.2-.57.37-.86.5-1.78.73-.74.17-1.52.17-.64 0-1.26-.12-1.04-.21-2-.76-.27-.15-.52-.33-1.18-.84-1.96-2.25-.94-1.69-.94-3.97 0-2.29.94-3.96.76-1.35 1.9-2.18.28-.21.58-.38.96-.55 2-.76.62-.12 1.26-.12.85 0 1.65.2.85.21 1.65.66.38.21.72.46 1.06.8 1.77 2.06Zm21.37 11.24q-.83.21-1.72.21-1.53 0-2.77-.6-.99-.47-1.81-1.33-.05-.06-.1-.11-1.71-1.94-1.71-5.39 0-2.4.88-4.06.68-1.3 1.74-2.1.3-.22.63-.4.63-.36 1.31-.56.93-.28 1.95-.28 1.03 0 1.98.28.67.21 1.3.56.34.19.66.42 1.07.79 1.78 2.08.92 1.66.92 4.06 0 2.39-.96 4.07-.77 1.36-1.93 2.17-.27.19-.57.35-.76.42-1.58.63Z"/></svg>